#!OML:ASF H:\Terrain\Patient Classification 1\Takeo\Monday\TakeoMonday.ASF
:FULLY-SPECIFIED
:DEGREES
1323
root 9.84992 17.721 -0.620759 -9.02176 8.4002 3.24502
lowerback 1.54942 5.14184 8.73169
upperback 3.05687 6.82655 1.73461
thorax 3.12401 3.60724 -2.91174
lowerneck -7.47706 13.4712 7.19392
upperneck 19.0809 16.8249 3.89529
head 7.38215 8.93119 1.61571
rclavicle 8.95525e-014 1.59028e-014
rhumerus 34.6119 73.9904 -64.1383
rradius 115.549
rwrist -30.4742
rhand -24.6526 27.5161
rfingers 7.12502
rthumb 1.8471 -2.45564
lclavicle 8.95525e-014 1.59028e-014
lhumerus 22.3842 28.3836 70.7789
lradius 59.5521
lwrist 78.5272
lhand -22.5912 30.1204
lfingers 7.12502
lthumb 3.83783 60.0655
rfemur 7.8288 -3.97617 15.974
rtibia 20.9947
rfoot -19.2462 -23.3932
rtoes 3.60997
lfemur 4.42906 -5.2775 -24.3966
ltibia 18.8993
lfoot -9.72935 10.3748
ltoes -8.903
1324
root 9.85394 17.7246 -0.618837 -9.10834 8.49973 2.89241
lowerback 1.58598 5.2139 9.05705
upperback 2.84251 6.93425 1.93505
thorax 2.9074 3.65087 -2.89407
lowerneck -6.45434 13.664 6.98997
upperneck 18.1684 17.1225 4.3538
head 6.85119 9.09503 1.67399
rclavicle 8.01102e-014 6.36111e-015
rhumerus 36.3311 74.3452 -62.4945
rradius 115.334
rwrist -30.2044
rhand -25.7885 27.9756
rfingers 7.12502
rthumb 0.750001 -2.0028
lclavicle 8.01102e-014 6.36111e-015
lhumerus 23.385 28.387 70.8734
lradius 59.4386
lwrist 79.07
lhand -22.1891 29.9694
lfingers 7.12502
lthumb 4.22613 59.9072
rfemur 7.97645 -3.92275 16.3578
rtibia 20.8098
rfoot -19.4186 -23.4554
rtoes 4.61467
lfemur 4.47357 -5.2899 -24.0236
ltibia 18.9149
lfoot -9.65079 10.2287
ltoes -9.28811
1325
root 9.85775 17.7269 -0.616734 -9.25665 8.63078 2.46199
lowerback 1.70246 5.25701 9.59216
upperback 2.67825 7.01373 2.03721
thorax 2.73492 3.68899 -3.09489
lowerneck -5.33419 13.5897 7.34504
upperneck 17.0222 17.1188 4.1149
head 6.34627 9.08142 1.40938
rclavicle 3.85642e-014 -1.43125e-014
rhumerus 38.4985 74.4586 -60.4418
rradius 115.348
rwrist -29.9551
rhand -26.6118 28.1609
rfingers 7.12502
rthumb -0.0451366 -1.81882
lclavicle 3.85642e-014 -1.43125e-014
lhumerus 24.7783 28.4355 71.0645
lradius 59.2502
lwrist 79.3876
lhand -21.7322 29.9954
lfingers 7.12502
lthumb 4.66737 59.924
rfemur 8.27681 -3.98927 16.8449
rtibia 20.5456
rfoot -19.5586 -23.5196
rtoes 4.69247
lfemur 4.56276 -5.45408 -23.5958
ltibia 18.9843
lfoot -9.79833 10.1583
ltoes -8.46291
1326
root 9.86148 17.7297 -0.615302 -9.26226 8.8173 2.43755
lowerback 1.62056 5.32003 9.55389
upperback 2.72282 7.08296 2.15236
thorax 2.81667 3.72515 -2.94147
lowerneck -4.94618 13.489 7.71992
upperneck 16.1644 17.0526 3.61769
head 6.08409 9.01808 1.13814
rclavicle -4.41302e-014 -2.54444e-014
rhumerus 40.0766 74.4179 -58.7771
rradius 115.327
rwrist -29.5303
rhand -27.1379 28.5218
rfingers 7.12502
rthumb -0.553262 -1.45723
lclavicle -4.41302e-014 -2.54444e-014
lhumerus 26.5865 28.6748 71.7163
lradius 59.0242
lwrist 79.3591
lhand -21.48 30.4183
lfingers 7.12502
lthumb 4.9109 60.3414
rfemur 8.50525 -4.08172 16.8718
rtibia 20.2067
rfoot -19.5184 -23.6397
rtoes 3.82391
lfemur 4.50573 -5.57204 -23.605
ltibia 19.1404
lfoot -9.94721 10.0795
ltoes -8.44806
1327
root 9.86061 17.7348 -0.617206 -9.13699 9.07441 2.44227
lowerback 1.46888 5.36238 9.47568
upperback 2.69692 7.12243 2.17792
thorax 2.86606 3.74341 -2.85743
lowerneck -5.39588 13.5371 7.84644
upperneck 16.0716 17.034 3.7627
head 6.12809 9.02129 1.19356
rclavicle -1.2424e-014 1.43125e-014
rhumerus 40.3631 74.3502 -58.6863
rradius 114.918
rwrist -29.0687
rhand -27.5854 29.2303
rfingers 7.12502
rthumb -0.985481 -0.747215
lclavicle -1.2424e-014 1.43125e-014
lhumerus 28.1909 28.818 72.0746
lradius 58.8015
lwrist 79.5304
lhand -21.4624 30.5804
lfingers 7.12502
lthumb 4.92787 60.5031
rfemur 8.54629 -4.18838 16.8762
rtibia 19.9078
rfoot -19.3487 -23.8655
rtoes 3.35884
lfemur 4.28026 -5.57011 -23.5836
ltibia 19.2495
lfoot -9.92475 9.83301
ltoes -9.36984
1328
root 9.85833 17.7391 -0.619129 -9.01944 9.33788 2.42134
lowerback 1.35005 5.40954 9.53754
upperback 2.59857 7.17809 2.12395
thorax 2.85159 3.76935 -2.93704
lowerneck -6.02385 13.6106 7.63927
upperneck 16.3023 16.9944 4.39398
head 6.23147 9.03962 1.46082
rclavicle -4.99943e-014 -1.59028e-015
rhumerus 39.8455 74.3337 -59.554
rradius 114.309
rwrist -28.4938
rhand -28.0642 30.0502
rfingers 7.12502
rthumb -1.44793 0.0754027
lclavicle -4.99943e-014 -1.59028e-015
lhumerus 29.6025 28.7319 72.1943
lradius 58.6358
lwrist 79.8144
lhand -21.4833 30.7961
lfingers 7.12502
lthumb 4.90766 60.7192
rfemur 8.55063 -4.28906 16.9193
rtibia 19.7193
rfoot -19.1144 -24.1135
rtoes 3.686
lfemur 4.07968 -5.71879 -23.528
ltibia 19.2756
lfoot -10.1393 9.56428
ltoes -7.50732
1329
root 9.86284 17.7448 -0.614812 -9.01131 9.43811 2.31802
lowerback 1.20649 5.54834 9.76405
upperback 2.57787 7.34494 2.16984
thorax 2.95564 3.85919 -2.98719
lowerneck -5.78032 13.5483 7.74156
upperneck 15.7654 16.9592 4.17351
head 6.04682 9.0014 1.33391
rclavicle -6.63941e-014 1.43125e-014
rhumerus 40.0721 74.2884 -59.3393
rradius 113.945
rwrist -27.6611
rhand -28.6332 30.7771
rfingers 7.12502
rthumb -1.99749 0.806677
lclavicle -6.63941e-014 1.43125e-014
lhumerus 31.1654 28.4522 72.5952
lradius 58.2938
lwrist 79.7791
lhand -21.3173 31.1247
lfingers 7.12502
lthumb 5.068 61.0441
rfemur 8.61658 -4.35753 17.012
rtibia 19.6068
rfoot -18.912 -24.1963
rtoes 3.99755
lfemur 4.04446 -5.97129 -23.4139
ltibia 19.2687
lfoot -10.5345 9.35337
ltoes -5.23941
1330
root 9.87123 17.7445 -0.610214 -9.09221 9.53424 2.33151
lowerback 1.01263 5.65071 9.6195
upperback 2.66524 7.44804 2.39587
thorax 3.11919 3.91198 -2.64545
lowerneck -4.94063 13.4894 8.1717
upperneck 14.6334 17.064 3.20108
head 5.67319 8.98549 0.885752
rclavicle -1.09729e-013 -3.33958e-014
rhumerus 41.8939 74.3572 -57.3161
rradius 113.727
rwrist -26.8929
rhand -29.5414 31.4544
rfingers 7.12502
rthumb -2.87459 1.49402
lclavicle -1.09729e-013 -3.33958e-014
lhumerus 32.5624 28.4073 73.1162
lradius 57.9119
lwrist 79.8467
lhand -21.1295 31.0837
lfingers 7.12502
lthumb 5.24928 60.9987
rfemur 8.79737 -4.4836 16.918
rtibia 19.5217
rfoot -18.9052 -24.0974
rtoes 4.16153
lfemur 4.19522 -6.13158 -23.5036
ltibia 19.1928
lfoot -10.5179 9.36574
ltoes -7.16937
1331
root 9.87673 17.7371 -0.608774 -9.08827 9.73279 2.60753
lowerback 0.729908 5.69444 9.00095
upperback 2.80992 7.46325 2.6605
thorax 3.31159 3.91136 -2.00463
lowerneck -4.78634 13.5216 8.03542
upperneck 14.0443 17.165 2.99198
head 5.46878 9.00263 0.809429
rclavicle -8.50798e-014 -2.8625e-014
rhumerus 44.4286 74.6018 -54.7112
rradius 113.25
rwrist -26.0426
rhand -30.6302 32.4736
rfingers 7.12502
rthumb -3.92604 2.53002
lclavicle -8.50798e-014 -2.8625e-014
lhumerus 34.002 28.7426 73.957
lradius 57.5396
lwrist 79.9853
lhand -20.8956 30.7423
lfingers 7.12502
lthumb 5.47511 60.6516
rfemur 8.88323 -4.46569 16.573
rtibia 19.5131
rfoot -19.1767 -24.1236
rtoes 4.91153
lfemur 4.31923 -6.13689 -23.8897
ltibia 19.0551
lfoot -10.1561 9.51186
ltoes -9.58352
1332
root 9.87768 17.7377 -0.607488 -8.9737 9.96073 2.90845
lowerback 0.584098 5.7812 8.55933
upperback 2.81725 7.5652 2.73985
thorax 3.34017 3.95101 -1.66765
lowerneck -5.2541 13.5709 7.77242
upperneck 14.1876 17.1871 3.17318
head 5.5513 9.01366 0.938455
rclavicle 1.2921e-014 -1.59028e-014
rhumerus 46.3137 74.6645 -52.8361
rradius 112.712
rwrist -24.8398
rhand -31.455 33.7133
rfingers 7.12502
rthumb -4.72247 3.78592
lclavicle 1.2921e-014 -1.59028e-014
lhumerus 35.5147 28.7971 74.817
lradius 57.1962
lwrist 80.0608
lhand -21.0949 30.1407
lfingers 7.12502
lthumb 5.28267 60.0548
rfemur 8.74183 -4.26644 16.2753
rtibia 19.6369
rfoot -19.6502 -24.2947
rtoes 5.86625
lfemur 4.30044 -6.29481 -24.2494
ltibia 18.9318
lfoot -10.0079 9.56126
ltoes -8.19317
1333
root 9.87798 17.74 -0.607046 -8.90084 10.1746 3.05365
lowerback 0.780882 5.85604 8.68024
upperback 2.59127 7.70443 2.50215
thorax 3.0562 4.01222 -2.00609
lowerneck -5.3662 13.6482 8.27214
upperneck 14.2011 17.2556 2.98082
head 5.63875 9.05738 0.837097
rclavicle 6.0033e-014 0
rhumerus 46.883 74.5538 -52.6733
rradius 112.206
rwrist -23.4468
rhand -32.4919 34.8531
rfingers 7.12502
rthumb -5.7237 4.95044
lclavicle 6.0033e-014 0
lhumerus 36.6749 28.4029 74.8759
lradius 56.918
lwrist 80.4665
lhand -21.7738 29.8494
lfingers 7.12502
lthumb 4.62716 59.7789
rfemur 8.62037 -4.17929 16.1448
rtibia 19.7644
rfoot -19.873 -24.4943
rtoes 5.88195
lfemur 4.24856 -6.45799 -24.4224
ltibia 18.8966
lfoot -9.95716 9.48879
ltoes -7.14655
1334
root 9.88141 17.733 -0.60793 -8.81744 10.3948 2.98122
lowerback 1.00842 5.88194 9.21736
upperback 2.26344 7.78833 2.11934
thorax 2.72323 4.05031 -2.72676
lowerneck -5.04481 13.6612 9.08659
upperneck 13.6574 17.2484 2.79179
head 5.50516 9.06808 0.631739
rclavicle 4.9895e-014 0
rhumerus 47.2342 74.4151 -53.0771
rradius 111.7
rwrist -22.2731
rhand -32.9886 35.6871
rfingers 7.12502
rthumb -6.20317 5.79792
lclavicle 4.9895e-014 0
lhumerus 37.6228 27.991 74.416
lradius 56.6584
lwrist 80.9332
lhand -21.9542 29.9527
lfingers 7.12502
lthumb 4.45303 59.8859
rfemur 8.52784 -4.25488 16.2341
rtibia 19.8252
rfoot -19.6915 -24.7838
rtoes 5.40889
lfemur 4.11033 -6.38224 -24.3578
ltibia 18.938
lfoot -9.77961 9.3239
ltoes -8.77095
1335
root 9.88573 17.723 -0.607482 -8.76445 10.6491 2.83383
lowerback 1.00744 5.92616 9.53215
upperback 2.11085 7.85698 2.01286
thorax 2.63159 4.0837 -3.00938
lowerneck -4.94408 13.5589 9.14801
upperneck 13.0327 17.0794 3.06879
head 5.26749 8.99043 0.651804
rclavicle 5.70512e-014 -1.11319e-014
rhumerus 49.7847 74.1619 -50.7873
rradius 111.468
rwrist -21.7277
rhand -32.7596 36.1914
rfingers 7.12502
rthumb -5.98215 6.29585
lclavicle 5.70512e-014 -1.11319e-014
lhumerus 38.6092 27.6759 74.3319
lradius 56.2761
lwrist 81.1432
lhand -21.6753 29.7997
lfingers 7.12502
lthumb 4.72229 59.7271
rfemur 8.5012 -4.39309 16.3814
rtibia 19.866
rfoot -19.7359 -24.8909
rtoes 5.61743
lfemur 4.00461 -6.44639 -24.2279
ltibia 19.004
lfoot -9.72887 9.15903
ltoes -9.78671
1336
root 9.88762 17.7218 -0.605354 -8.81782 10.9023 2.75431
lowerback 0.978652 5.99724 9.58605
upperback 2.09789 7.94764 2.08527
thorax 2.64271 4.12865 -2.95646
lowerneck -4.95718 13.4504 8.50659
upperneck 12.453 16.8878 3.96381
head 4.94707 8.90798 0.943695
rclavicle -1.42529e-013 -3.02153e-014
rhumerus 53.2273 73.7729 -47.3221
rradius 111.226
rwrist -21.1084
rhand -33.2464 36.6412
rfingers 7.12502
rthumb -6.45207 6.75953
lclavicle -1.42529e-013 -3.02153e-014
lhumerus 39.8735 27.4028 74.7592
lradius 55.4603
lwrist 81.0621
lhand -21.0744 29.6481
lfingers 7.12502
lthumb 5.30251 59.5617
rfemur 8.63142 -4.55376 16.4442
rtibia 19.8503
rfoot -19.9939 -24.8995
rtoes 5.72183
lfemur 4.03373 -6.65458 -24.1709
ltibia 19.0568
lfoot -9.80571 9.02515
ltoes -9.09911
